<?xml version="1.0" encoding="UTF-8" standalone="no"?>
<svg
   width="512"
   height="512"
   viewBox="0 0 512 512"
   version="1.1"
   id="svg8"
   xmlns="http://www.w3.org/2000/svg"
   xmlns:svg="http://www.w3.org/2000/svg"
   xmlns:rdf="http://www.w3.org/1999/02/22-rdf-syntax-ns#"
   xmlns:cc="http://creativecommons.org/ns#"
   xmlns:dc="http://purl.org/dc/elements/1.1/">
  <defs
     id="defs2" />
  <metadata
     id="metadata5">
    <rdf:RDF>
      <cc:Work
         rdf:about="">
        <dc:format>image/svg+xml</dc:format>
        <dc:type
           rdf:resource="http://purl.org/dc/dcmitype/StillImage" />
      </cc:Work>
    </rdf:RDF>
  </metadata>
  <circle
     style="display:inline;fill:#000000;stroke-width:11.25;stroke-linecap:round;stroke-linejoin:round"
     id="path862"
     cx="256"
     cy="256"
     r="256" />
  <circle
     style="display:inline;fill:#ffffff;stroke-width:10.6875;stroke-linecap:round;stroke-linejoin:round"
     id="circle864"
     cx="256"
     cy="256"
     r="243.19998" />
  <path
     id="path220"
     style="display:inline;fill:#000000;fill-opacity:1;stroke:none;stroke-width:1.94611px;stroke-linecap:butt;stroke-linejoin:miter;stroke-opacity:1"
     d="m 192.47002,124.07003 -28.538,0.934 c 0,0 41.39495,75.88099 76.518,140.35599 -17.35884,30.0902 -31.89662,54.21272 -36.006,58.00601 -12.16384,11.22814 -42.57303,13.56751 -63.15799,12.164 -20.58494,-1.40349 -60.820898,-3.27472 -69.242006,0.468 -8.42119,3.74272 -10.291471,18.71599 -8.888,30.412 1.403556,11.696 10.760541,21.52 18.246,21.52 7.485439,0 109.942546,-7.48648 117.428006,-8.89 7.48544,-1.40353 17.77887,-12.16341 26.2,-28.07 2.51698,-4.75428 15.37453,-28.40934 30.97,-57.06001 15.59549,28.65067 28.45304,52.30573 30.97,57.06001 8.42114,15.90659 18.71457,26.66647 26.2,28.07 7.48546,1.40352 109.94258,8.89 117.428,8.89 7.48546,0 16.84242,-9.824 18.246,-21.52 1.40346,-11.69601 -0.46687,-26.66928 -8.888,-30.412 -8.42113,-3.74272 -48.65706,-1.87149 -69.242,-0.468 -20.58498,1.40351 -50.99416,-0.93586 -63.158,-12.164 -4.10958,-3.79348 -18.646,-27.91771 -36.006,-58.01 35.12276,-64.47441 76.522,-140.352 76.522,-140.352 l -28.538,-0.934 c 0,0 -32.78019,59.89893 -63.53,114.11 -30.75012,-54.21152 -63.53401,-114.11 -63.53401,-114.11 z m 63.53001,251.378 c -29.59084,0.54524 -35.45,9.98799 -35.45,9.98799 v 22.266 c 0,0 13.05498,10.61833 35.45,10.90001 22.39501,-0.28175 35.45,-10.90001 35.45,-10.90001 v -22.266 c 0,0 -5.85917,-9.44275 -35.45,-9.98799 z" />
  <g
     id="g921">
    <path
       id="path913"
       style="display:inline;opacity:1;fill:#ffffff;fill-opacity:1;stroke:none;stroke-width:12.264;stroke-linecap:round;stroke-linejoin:round"
       d="m 333.551,246.732 27.799,217.432 c 0,0 16.855,-25.515 34.467,-51.917 l 54.802,94.92 49.941,-28.834 -54.802,-94.92 c 31.671,-2.051 62.195,-3.891 62.195,-3.891 z" />
    <path
       id="path911"
       style="display:inline;opacity:1;fill:#000000;fill-opacity:1;stroke:none;stroke-width:8.86808;stroke-linecap:round;stroke-linejoin:round"
       d="m 348.857,273.243 20.102,157.225 c 0,0 12.188,-18.449 24.922,-37.54 l 59.644,103.306 18.057,-10.425 18.057,-10.425 -59.644,-103.306 c 22.901,-1.483 44.972,-2.814 44.972,-2.814 z" />
  </g>
</svg>
