<svg xmlns="http://www.w3.org/2000/svg" width="512" height="512"><circle cx="256" cy="256" r="256" style="display:inline;fill:#000;stroke-width:11.25;stroke-linecap:round;stroke-linejoin:round"/><circle cx="256" cy="256" r="243.2" style="display:inline;fill:#fff;stroke-width:10.6875;stroke-linecap:round;stroke-linejoin:round"/><path d="m192.47 124.07-28.538.934s41.395 75.881 76.518 140.356c-17.359 30.09-31.897 54.213-36.006 58.006-12.164 11.228-42.573 13.568-63.158 12.164-20.585-1.403-60.82-3.275-69.242.468-8.421 3.743-10.291 18.716-8.888 30.412 1.404 11.696 10.76 21.52 18.246 21.52 7.485 0 109.943-7.486 117.428-8.89 7.485-1.404 17.779-12.163 26.2-28.07 2.517-4.754 15.375-28.41 30.97-57.06 15.596 28.65 28.453 52.306 30.97 57.06 8.421 15.907 18.715 26.666 26.2 28.07 7.485 1.404 109.943 8.89 117.428 8.89 7.485 0 16.842-9.824 18.246-21.52 1.403-11.696-.467-26.67-8.888-30.412-8.421-3.743-48.657-1.871-69.242-.468-20.585 1.404-50.994-.936-63.158-12.164-4.11-3.793-18.646-27.918-36.006-58.01 35.123-64.474 76.522-140.352 76.522-140.352l-28.538-.934s-32.78 59.899-63.53 114.11c-30.75-54.211-63.534-114.11-63.534-114.11zM256 375.448c-29.59.545-35.45 9.988-35.45 9.988v22.266s13.055 10.618 35.45 10.9c22.395-.282 35.45-10.9 35.45-10.9v-22.266s-5.86-9.443-35.45-9.988z" style="display:inline;fill:#000;fill-opacity:1;stroke:none;stroke-width:1.94611px;stroke-linecap:butt;stroke-linejoin:miter;stroke-opacity:1"/><path d="m333.551 246.732 27.799 217.432s16.855-25.515 34.467-51.917l54.802 94.92 49.941-28.834-54.802-94.92c31.671-2.051 62.195-3.891 62.195-3.891z" style="display:inline;opacity:1;fill:#fff;fill-opacity:1;stroke:none;stroke-width:12.264;stroke-linecap:round;stroke-linejoin:round"/><path d="m348.857 273.243 20.102 157.225s12.188-18.449 24.922-37.54l59.644 103.306 18.057-10.425 18.057-10.425-59.644-103.306c22.901-1.483 44.972-2.814 44.972-2.814z" style="display:inline;opacity:1;fill:#000;fill-opacity:1;stroke:none;stroke-width:8.86808;stroke-linecap:round;stroke-linejoin:round"/></svg>